Coordinates
nRows=98
nColumns=2
inDegrees=yes
endheader
time	ankle_angle_r	
4.6875	  9.323120	
4.75	  9.360177	
4.8125	  9.329478	
4.875	  9.310768	
4.9375	  9.332384	
5	  9.304228	
5.0625	  9.323120	
5.125	  9.338379	
5.1875	  9.338379	
5.25	  9.368896	
5.3125	  9.317671	
5.375	  9.344192	
5.4375	  9.342920	
5.5	  9.312221	
5.5625	  9.349460	
5.625	  9.319124	
5.6875	  9.323120	
5.75	  9.395781	
5.8125	  9.399414	
5.875	  9.368896	
5.9375	  9.393238	
6	  9.356544	
6.0625	  9.353638	
6.125	  9.394328	
6.1875	  9.340740	
6.25	  9.379796	
6.3125	  9.386153	
6.375	  9.368896	
6.4375	  9.399414	
6.5	  9.368896	
6.5625	  9.325664	
6.625	  9.353638	
6.6875	  9.339287	
6.75	  9.368170	
6.8125	  9.397779	
6.875	  9.354001	
6.9375	  9.383974	
7	  9.368896	
7.0625	  9.323483	
7.125	  9.383429	
7.1875	  9.323120	
7.25	  9.353638	
7.3125	  9.413765	
7.375	  9.383065	
7.4375	  9.399414	
7.5	  9.353638	
7.5625	  9.307861	
7.625	  9.338379	
7.6875	  9.323120	
7.75	  9.325300	
7.8125	  9.386517	
7.875	  9.348552	
7.9375	  9.381431	
8	  9.402321	
8.0625	  9.292603	
8.125	  9.299142	
8.1875	  9.350186	
8.25	  9.265718	
8.3125	  9.410858	
8.375	  9.353638	
8.4375	  9.357816	
8.5	  9.405953	
8.5625	  9.338379	
8.625	  9.357271	
8.6875	  9.328569	
8.75	  9.287517	
8.8125	  9.425209	
8.875	  9.374346	
8.9375	  9.359269	
9	  9.408860	
9.0625	  9.323120	
9.125	  9.338379	
9.1875	  9.362538	
9.25	  9.314401	
9.3125	  9.399414	
9.375	  9.352184	
9.4375	  9.338379	
9.5	  9.384882	
9.5625	  9.338379	
9.625	  9.338379	
9.6875	  9.323120	
9.75	  9.330386	
9.8125	  9.385245	
9.875	  9.368896	
9.9375	  9.331657	
10	  9.377616	
10.0625	  9.344737	
10.125	  9.319850	
10.1875	  9.338379	
10.25	  9.323120	
10.3125	  9.292603	
10.375	  9.384155	
10.4375	  9.343647	
10.5	  9.404500	
10.5625	  9.398870	
10.625	  9.344192	
10.6875	  9.368896	
10.75	  9.342738	
